<?xml version="1.0" standalone="no"?> <!DOCTYPE svg PUBLIC "-//W3C//DTD SVG 1.0//EN" "http://www.w3.org/TR/2001/REC-SVG-20010904/DTD/svg10.dtd" > <svg xmlns="http://www.w3.org/2000/svg" width="100%" height="100%">
<defs >
<font id="nexaregular" horiz-adv-x="483" ><font-face
    font-family="NexaRegular"
    units-per-em="1000"
    panose-1="2 0 5 0 0 0 0 0 0 0"
    ascent="750"
    descent="-250"
    alphabetic="0" />
<missing-glyph horiz-adv-x="639" d="M37 700H575V0H37V700ZM187 446L188 445Q188 491 222 513T303 535Q427 535 428 444Q428 424 423 410T402 386T380 372T351 360Q302 341 282 311T261 211H321Q321 259 331 277T376 309Q380 311 398 319T424 331T447 347T469
370T482 401T488 445Q488 521 435 556T303 591Q228 591 178 555T127 446H187ZM251 154T251 129T270 93T309 92T329 128T310 164T271 165Z" />
<glyph unicode=" " glyph-name="space" horiz-adv-x="256" />
<glyph unicode="!" glyph-name="exclam" horiz-adv-x="264" d="M175 700V160H88V700H175ZM75 16T75 52T104 102T162 103T191 52T162 2T104 1Z" />
<glyph unicode="&quot;" glyph-name="quotedbl" horiz-adv-x="379" d="M148 701V440H74V701H148ZM305 701V440H231V701H305Z" />
<glyph unicode="#" glyph-name="numbersign" horiz-adv-x="663" d="M333 700L294 540H461L501 700H583L543 540H625V467H525L464 230H552V155H447L409 0H327L365 155H197L159 0H78L116 155H37V230H134L195 467H111V540H212L251 700H333ZM277 471L214 226H382L444
471H277Z" />
<glyph unicode="$" glyph-name="dollar" horiz-adv-x="668" d="M382 805V807V712Q546 695 604 584L532 548Q509 589 453 613T338 638Q265 638 207 608T149 518Q149 495 160 478T187 449T230 429T282 414T342 403Q383 397 403 394T459 381T514 364T559 339T597
304T619 258T629 196Q628 103 555 52T381 -5V-104H300V-7Q212 -1 141 36T36 144L112 180Q137 128 202 100T336 71Q385 71 429 82T507 123T541 197Q541 228 525 250T475 287T411 308T332 324Q289 331 264 335T203 350T146 373T104 405T72 452T62 516Q61 606 131
654T300 710V805H382Z" />
<glyph unicode="%" glyph-name="percent" horiz-adv-x="744" d="M193 709Q253 709 294 678T344 602T345 513T294 437T193 405Q150 405 116 422T65 465T40 524T39 589T65 648T116 692T193 709ZM550 702H642L190 0H97L550 702ZM193 644H192Q137 644 115 601T115
515T194 471Q227 471 249 489T277 532T277 583T249 626T193 644ZM551 297H550Q610 297 651 266T701 190T702 101T651 25T550 -7T450 24T400 100T399 189T450 265T551 297ZM550 233Q495 233 473 190T472 102T550 58Q583 58 606 76T634 120T634 171T606 215T550 233Z"
/>
<glyph unicode="&amp;" glyph-name="ampersand" horiz-adv-x="699" d="M484 523V525Q484 634 325 634Q241 634 198 599T156 512Q157 451 210 423T327 394H638V323H576V193Q576 142 593 110T652 78V-1Q553 -8 528 86Q469 -9 325 -9Q199 -9 129 42T58 198Q58 252
94 296T184 358Q134 374 103 416T71 510Q71 602 143 654T327 707Q375 707 414 699T489 671T545 614T566 523H484ZM497 324H321Q238 324 191 286T144 200Q144 138 192 104T323 69Q385 69 441 100T497 195V324Z" />
<glyph unicode="&apos;" glyph-name="quotesingle" horiz-adv-x="223" d="M149 702V440H74V702H149Z" />
<glyph unicode="(" glyph-name="parenleft" horiz-adv-x="339" d="M314 677Q226 612 179 511T131 294Q130 176 176 75T314 -94L270 -156Q161 -85 103 35T45 290Q45 423 103 542T272 735L314 677Z" />
<glyph unicode=")" glyph-name="parenright" horiz-adv-x="339" d="M67 737Q177 665 235 546T294 293Q294 159 236 39T69 -154L26 -93Q117 -25 163 76T208 296Q207 411 160 512T25 679L67 737Z" />
<glyph unicode="*" glyph-name="asterisk" horiz-adv-x="377" d="M243 456L187 535L132 456L79 494L140 568L55 589L73 651L158 621L155 708H220L215 620L305 650L323 589L233 568L295 494L243 456Z" />
<glyph unicode="+" glyph-name="plus" horiz-adv-x="500" d="M47 383H209V544H289V383H453V306H289V141H209V306H47V383Z" />
<glyph unicode="," glyph-name="comma" horiz-adv-x="237" d="M99 -3L100 -1Q65 8 65 43Q65 76 91 89T145 88T172 41Q172 37 166 19T149 -34T129 -93H74L99 -3Z" />
<glyph unicode="-" glyph-name="hyphen" horiz-adv-x="496" d="M69 326H427V248H69V326Z" />
<glyph unicode="." glyph-name="period" horiz-adv-x="238" d="M65 11T65 45T92 92T146 92T173 44T146 -3T92 -3Z" />
<glyph unicode="/" glyph-name="slash" horiz-adv-x="491" d="M380 762H466L110 -82H25L380 762Z" />
<glyph unicode="0" glyph-name="zero" horiz-adv-x="690" d="M62 420Q62 490 86 547T150 638T241 692T345 711T449 692T539 638T603 547T628 420V280Q628 210 604 154T540 62T449 8T345 -11T241 8T151 61T87 153T62 280V420ZM149 280Q149 223 170 178T226 110T303
76T387 76T463 110T519 178T541 281V421Q541 478 520 522T464 590T387 624T303 625T227 591T171 522T149 420V280Z" />
<glyph unicode="1" glyph-name="one" horiz-adv-x="422" d="M52 73H182V591L59 558V638L269 700V73H396V0H52V73Z" />
<glyph unicode="2" glyph-name="two" horiz-adv-x="674" d="M155 506H68Q70 562 95 603T161 666T247 698T345 708T442 697T528 663T591 597T615 499Q615 442 592 400T528 335T442 301T341 290Q151 288 151 169V83H612V0H63V169Q63 226 87 267T152 329T240 361T340
371Q371 371 401 377T462 396T510 436T529 498Q529 568 476 599T345 632Q269 632 213 602T155 506Z" />
<glyph unicode="3" glyph-name="three" horiz-adv-x="671" d="M66 518L64 519Q64 572 88 611T154 671T239 701T334 711Q450 711 524 658T600 513Q600 459 565 417T475 362Q534 347 574 303T614 201Q614 101 535 47T333 -8Q293 -8 256 -3T181 17T116 54T71 111T54
191H141Q142 72 335 72Q421 72 474 105T527 198Q527 248 480 285T339 323H226V396H333Q413 396 463 429T514 512Q515 560 470 595T335 631Q303 631 274 626T216 610T170 575T152 518H66Z" />
<glyph unicode="4" glyph-name="four" horiz-adv-x="660" d="M442 147H38L26 243L390 700H530V228H615V147H530V0H442V147ZM442 228V634L118 228H442Z" />
<glyph unicode="5" glyph-name="five" horiz-adv-x="658" d="M345 439Q471 439 541 381T611 220T537 56T339 -6Q284 -6 237 4T150 37T86 102T62 201H149Q149 153 180 124T251 85T337 76Q421 76 472 114T524 219Q524 282 478 319T345 357H75V700H571V620H160V439H345Z" />
<glyph unicode="6" glyph-name="six" horiz-adv-x="692" d="M161 350Q223 435 360 435Q402 435 441 428T517 403T581 361T624 298T640 212Q640 155 616 111T550 41T461 2T359 -11Q286 -11 224 11T118 87T75 215V501Q75 602 156 656T351 711Q467 711 545 663T627
521H540Q538 576 484 606T352 637T218 600T161 500V350ZM359 69Q409 70 451 83T523 129T553 212Q553 285 497 321T361 357Q282 357 223 319T163 212Q163 140 221 105T359 69Z" />
<glyph unicode="7" glyph-name="seven" horiz-adv-x="561" d="M442 618H31V700H543L550 644L200 0H101L442 618Z" />
<glyph unicode="8" glyph-name="eight" horiz-adv-x="703" d="M57 198Q57 255 95 300T192 362Q72 409 72 514Q72 566 96 605T161 668T250 702T351 714Q423 714 484 695T589 630T633 514Q633 463 599 423T509 363Q567 346 606 299T646 196Q646 137 621 94T551 28T458
-5T351 -15T246 -5T153 28T83 94T57 198ZM545 516Q545 557 514 586T440 628T350 641Q302 641 260 628T188 586T159 516Q160 457 219 427T351 397Q396 397 438 408T512 447T545 516ZM351 328Q304 329 259 318T179 275T144 199Q144 132 206 99T350 65Q401 65 446
77T525 121T559 198Q559 242 524 273T443 316T351 328Z" />
<glyph unicode="9" glyph-name="nine" horiz-adv-x="690" d="M532 202V355Q472 267 333 267Q291 267 252 274T176 299T112 341T69 404T53 490Q53 547 77 591T143 661T232 700T334 713Q407 713 469 691T575 615T618 487V201Q618 100 537 46T342 -9Q225 -9 147 39T65
181H152Q154 128 209 98T341 68Q417 68 474 104T532 202ZM334 634Q285 633 244 620T172 574T141 490Q141 418 197 382T333 345T471 383T530 490Q530 562 472 598T334 634Z" />
<glyph unicode=":" glyph-name="colon" horiz-adv-x="245" d="M69 316T69 341T85 380T122 395T159 381T176 341T160 302T123 287T86 301ZM69 21T69 46T85 85T122 100T159 86T176 46T160 7T123 -8T86 6Z" />
<glyph unicode=";" glyph-name="semicolon" horiz-adv-x="247" d="M178 374T178 341T151 294T98 293T71 340Q71 374 97 387T151 388ZM104 -2H105Q70 7 70 43Q70 76 97 89T150 88T177 41Q177 37 171 19T153 -34T133 -93H79L104 -2Z" />
<glyph unicode="&lt;" glyph-name="less" horiz-adv-x="374" d="M264 535L316 479L140 316L319 154L264 97L45 302V330L264 535Z" />
<glyph unicode="=" glyph-name="equal" horiz-adv-x="560" d="M73 458H487V381H73V458ZM73 247H487V170H73V247Z" />
<glyph unicode="&gt;" glyph-name="greater" horiz-adv-x="376" d="M331 330V302L111 97L57 151L236 316L59 481L111 535L331 330Z" />
<glyph unicode="?" glyph-name="question" horiz-adv-x="607" d="M119 500H35Q35 554 57 595T118 660T203 696T301 708Q354 708 400 697T485 663T546 599T569 501Q569 467 560 440T541 396T508 362T475 340T436 322T404 308Q352 288 336 262T320 169H233Q233 265
264 307T368 376Q396 387 410 394T444 416T473 452T482 503Q482 541 465 568T419 607T361 625T297 631Q254 631 216 619T148 577T119 500ZM223 18T223 54T251 104T309 105T338 54T309 4T252 3Z" />
<glyph unicode="@" glyph-name="at" horiz-adv-x="903" d="M456 606Q316 606 222 515T127 278Q127 129 219 46T453 -38Q532 -38 602 1L636 -58Q554 -108 452 -108Q277 -108 164 -4T51 278Q51 453 166 563T456 673Q638 673 748 571T859 283Q859 132 780 68Q750
44 715 41T655 59T631 122Q606 77 554 52T450 26Q344 26 271 97T197 274Q197 389 269 456T450 524Q502 524 551 498T623 429L627 499L693 493V134Q693 118 702 111T724 106T745 121Q789 166 789 284Q789 446 702 526T456 606ZM451 451Q372 451 324 404T276 275Q276
194 324 147T450 100Q533 100 578 151T624 277Q624 350 579 400T451 451Z" />
<glyph unicode="A" glyph-name="A" horiz-adv-x="760" d="M331 700H429L743 0H649L580 154H180L112 0H17L331 700ZM546 234L380 612L214 234H546Z" />
<glyph unicode="B" glyph-name="B" horiz-adv-x="707" d="M93 700H399Q500 700 567 650T634 504Q634 455 607 417T530 360Q590 343 623 295T656 193Q656 139 635 100T577 40T496 10T399 0H93V700ZM180 621V399H403Q469 399 508 424T548 503Q548 560 507 590T399
621H180ZM180 320V82H399Q430 82 457 87T511 103T553 138T569 196Q568 257 518 288T403 320H180Z" />
<glyph unicode="C" glyph-name="C" horiz-adv-x="710" d="M675 93Q570 -11 415 -11Q240 -11 146 92T50 346Q49 442 88 523T212 657T415 711Q564 711 671 606L611 550Q532 628 415 628Q281 628 209 546T137 347Q139 231 210 152T415 72Q533 72 614 153L675 93Z" />
<glyph unicode="D" glyph-name="D" horiz-adv-x="750" d="M93 700V701H348Q434 701 503 672T614 594T678 485T700 358Q700 289 679 227T617 113T506 31T348 0H93V700ZM348 87Q478 87 545 167T613 359Q613 465 544 541T348 617H180V87H348Z" />
<glyph unicode="E" glyph-name="E" horiz-adv-x="651" d="M93 0V700H585V620H179V401H568V320H179V83H601V0H93Z" />
<glyph unicode="F" glyph-name="F" horiz-adv-x="626" d="M93 700H579V617H180V373H562V292H180V-1H93V700Z" />
<glyph unicode="G" glyph-name="G" horiz-adv-x="745" d="M672 609L622 551Q582 590 526 611T415 633Q285 633 211 550T137 344Q137 229 209 149T417 69Q526 69 608 140V306H390V383H687V106Q576 -13 416 -13Q326 -13 255 16T140 95T74 208T51 344Q50 505 149
609T415 714Q566 714 672 609Z" />
<glyph unicode="H" glyph-name="H" horiz-adv-x="760" d="M580 0V316H180V0H93V700H180V397H580V700H667V0H580Z" />
<glyph unicode="I" glyph-name="I" horiz-adv-x="273" d="M93 0V700H180V0H93Z" />
<glyph unicode="J" glyph-name="J" horiz-adv-x="688" d="M603 280Q605 148 526 68T314 -13Q186 -13 105 65T24 276H110Q110 181 165 125T314 69T462 126T517 280V620H272V700H603V280Z" />
<glyph unicode="K" glyph-name="K" horiz-adv-x="628" d="M93 0V700H179V391L489 700H598V695L262 363L628 6V0H520L179 329V0H93Z" />
<glyph unicode="L" glyph-name="L" horiz-adv-x="579" d="M180 700V81H561V0H93V700H180Z" />
<glyph unicode="M" glyph-name="M" horiz-adv-x="884" d="M705 574L451 220H433L179 576V0H93V700H197L443 340L687 700H791V0H705V574Z" />
<glyph unicode="N" glyph-name="N" horiz-adv-x="762" d="M93 700H154L583 164V700H669V0H609L179 534V0H93V700Z" />
<glyph unicode="O" glyph-name="O" horiz-adv-x="809" d="M406 712Q574 711 667 604T760 348Q760 278 738 214T673 99T561 17T405 -14T249 16T137 98T72 213T49 348Q49 504 146 608T406 712ZM673 348Q674 422 646 484T556 589T406 632Q278 632 207 551T136 348Q136
232 206 150T406 68Q535 68 604 151T673 348Z" />
<glyph unicode="P" glyph-name="P" horiz-adv-x="684" d="M179 226V0H93V700H411Q477 700 529 674T608 606T647 514T648 413T608 321T529 253T411 226H179ZM411 307Q453 307 486 324T537 368T562 429T562 496T537 557T487 602T411 619H179V307H411Z" />
<glyph unicode="Q" glyph-name="Q" horiz-adv-x="813" d="M627 59V60Q540 -8 407 -8Q235 -8 143 97T50 355Q51 451 89 530T209 662T407 714Q494 714 563 685T675 604T740 490T763 355Q763 219 688 120L775 36L714 -25L627 59ZM407 632Q323 631 261 592T167 490T137
352Q137 237 207 155T406 73T605 156T674 356T605 552T407 632Z" />
<glyph unicode="R" glyph-name="R" horiz-adv-x="712" d="M568 0L350 252H180V0H93V700H411Q523 700 585 634T648 476Q649 390 599 329T447 259L678 0H568ZM407 330Q482 330 521 370T561 474Q562 532 522 577T411 622H180V330H407Z" />
<glyph unicode="S" glyph-name="S" horiz-adv-x="664" d="M532 547Q505 591 451 613T335 637Q260 637 206 607T151 517Q151 490 165 470T208 437T266 417T341 402Q393 394 425 387T498 365T563 329T602 275T619 194Q619 138 594 96T526 31T435 -3T334 -14Q234
-14 155 25T38 148L110 190Q142 131 204 99T335 67Q370 67 402 73T465 93T514 133T533 197Q533 228 518 251T471 288T409 310T331 325Q283 332 251 339T180 361T119 395T81 446T65 519Q64 571 88 610T153 672T239 704T333 715Q423 715 489 688T598 588L532 547Z"
/>
<glyph unicode="T" glyph-name="T" horiz-adv-x="598" d="M256 622H17V700H581V622H342V0H256V622Z" />
<glyph unicode="U" glyph-name="U" horiz-adv-x="741" d="M655 700L656 699V279Q656 140 575 64T372 -13Q252 -13 169 63T85 279V699H171V279Q171 179 229 123T372 67T513 124T570 280V700H655Z" />
<glyph unicode="V" glyph-name="V" horiz-adv-x="714" d="M20 700H117L356 102L597 700H693L404 -2H310L20 700Z" />
<glyph unicode="W" glyph-name="W" horiz-adv-x="1080" d="M27 700H125L318 121L512 700H568L764 121L955 700H1054L809 -1H722L540 523L359 -1H271L27 700Z" />
<glyph unicode="X" glyph-name="X" horiz-adv-x="636" d="M512 699H611V696L374 357L625 2V0H525L318 294L111 0H11V2L262 357L25 696V699H126L318 416L512 699Z" />
<glyph unicode="Y" glyph-name="Y" horiz-adv-x="680" d="M294 284L23 697V700H129L339 368L554 700H660V697L384 284V0H294V284Z" />
<glyph unicode="Z" glyph-name="Z" horiz-adv-x="607" d="M51 700H568V662L153 84H568V0H30V47L437 619H51V700Z" />
<glyph unicode="[" glyph-name="bracketleft" horiz-adv-x="330" d="M86 712H294V637H170V-96H294V-172H86V712Z" />
<glyph unicode="\" glyph-name="backslash" horiz-adv-x="491" d="M380 -82L25 762H111L466 -82H380Z" />
<glyph unicode="]" glyph-name="bracketright" horiz-adv-x="331" d="M245 -171H37V-95H161V638H37V713H245V-171Z" />
<glyph unicode="^" glyph-name="asciicircum" horiz-adv-x="609" d="M50 359L49 364L272 701H334L560 364L559 359H470L303 615L136 359H50Z" />
<glyph unicode="_" glyph-name="underscore" horiz-adv-x="606" d="M68 -16H538V-89H68V-16Z" />
<glyph unicode="`" glyph-name="grave" horiz-adv-x="235" d="M113 568L13 697V700H113L188 573V568H113Z" />
<glyph unicode="a" glyph-name="a" horiz-adv-x="637" d="M483 0L481 -2L479 88Q451 39 401 14T297 -12Q188 -12 116 58T44 247Q44 364 116 433T298 502Q355 502 405 477T481 404L482 494H562V0H483ZM302 425L301 424Q226 424 175 375T124 244T175 113T301 63Q350
63 388 83T447 135T476 205T476 282T447 353T389 405T302 425Z" />
<glyph unicode="b" glyph-name="b" horiz-adv-x="637" d="M157 700V404Q182 452 234 477T342 503Q452 503 522 436T592 247Q592 128 522 60T341 -9Q284 -9 235 16T157 90L153 0H75V700H157ZM336 426Q262 426 212 376T161 248Q161 168 211 118T336 68T460 116T510
247Q510 331 461 378T336 426Z" />
<glyph unicode="c" glyph-name="c" horiz-adv-x="516" d="M487 66L486 67Q410 -9 302 -9Q192 -9 118 59T44 247Q44 367 117 435T302 503Q406 503 481 429L429 375Q378 425 304 425Q228 425 178 377T127 247Q127 164 177 117T303 69Q381 69 432 121L487 66Z" />
<glyph unicode="d" glyph-name="d" horiz-adv-x="636" d="M560 700L561 701V1H484L480 91Q451 42 402 17T295 -9Q186 -9 116 59T45 247Q45 368 115 435T294 503Q350 503 402 478T479 404V700H560ZM300 427H301Q226 427 177 380T127 248Q127 165 176 117T301 69T426
119T476 249Q476 327 426 377T300 427Z" />
<glyph unicode="e" glyph-name="e" horiz-adv-x="586" d="M518 79H517Q481 36 423 14T304 -9Q188 -9 116 61T44 249Q44 361 116 433T300 505Q420 505 490 431T547 215H127Q134 148 184 108T306 67Q350 67 394 83T463 129L518 79ZM469 284V283Q466 354 421 392T302
431Q235 431 186 392T127 284H469Z" />
<glyph unicode="f" glyph-name="f" horiz-adv-x="382" d="M129 0L130 -1V416H33V488H130V527Q130 612 174 659T296 706Q355 706 408 670L374 609Q332 634 298 634Q211 634 211 527V488H366V416H211V0H129Z" />
<glyph unicode="g" glyph-name="g" horiz-adv-x="611" d="M130 -83Q130 -150 180 -184T305 -219Q377 -219 428 -191T479 -102Q479 -45 430 -14T306 17Q188 17 117 82T45 261Q45 376 123 441T306 506Q393 506 446 469L499 533L557 487L501 421Q565 349 565 261Q565
193 530 138T426 60Q562 20 562 -101Q562 -192 486 -243T304 -294Q190 -294 120 -238T51 -83H130ZM126 261Q127 179 178 134T307 89T435 138T485 260Q485 341 433 386T306 431Q234 431 180 387T126 261Z" />
<glyph unicode="h" glyph-name="h" horiz-adv-x="602" d="M156 700V699V412Q212 498 327 500Q428 500 481 439T534 272V0H453V271Q453 344 417 383T313 423T202 377T157 262V0H75V700H156Z" />
<glyph unicode="i" glyph-name="i" horiz-adv-x="232" d="M63 611T63 645T90 692T144 692T171 644T144 597T90 597ZM75 496V0H157V496H75Z" />
<glyph unicode="j" glyph-name="j" horiz-adv-x="232" d="M63 614T63 648T90 695T144 695T171 647T144 600T90 600ZM76 495H75V-65Q75 -117 62 -142T7 -169Q-26 -169 -60 -152L-87 -218Q-40 -246 11 -246Q90 -246 124 -200T157 -65V495H76Z" />
<glyph unicode="k" glyph-name="k" horiz-adv-x="496" d="M156 700V286L359 494H461V489L233 261L489 6V0H389L156 233V0H75V700H156Z" />
<glyph unicode="l" glyph-name="l" horiz-adv-x="244" d="M163 700V0H81V700H163Z" />
<glyph unicode="m" glyph-name="m" horiz-adv-x="920" d="M75 494L76 493H152L157 421Q178 462 217 482T303 502Q359 502 404 476T469 394Q495 448 541 475T643 502Q740 502 795 443T851 282V0H769V282Q769 344 735 384T641 425Q581 425 544 384T506 280V0H424V280Q424
342 388 383T291 425T194 384T157 280V0H75V494Z" />
<glyph unicode="n" glyph-name="n" horiz-adv-x="608" d="M75 494V495H150L154 416Q217 502 323 502Q419 502 479 441T540 273V0H458V272Q458 344 418 385T308 426Q241 425 199 379T156 265V0H75V494Z" />
<glyph unicode="o" glyph-name="o" horiz-adv-x="599" d="M43 246Q43 360 115 432T299 505Q412 505 484 433T556 246Q556 134 484 63T299 -9Q188 -9 116 62T43 246ZM475 246Q475 327 425 378T300 430Q224 430 175 379T125 246Q125 168 174 118T299 68T424 118T475 246Z" />
<glyph unicode="p" glyph-name="p" horiz-adv-x="637" d="M75 -233V492H153L157 397Q186 446 237 473T347 501Q455 499 524 429T593 246Q593 130 524 60T342 -11Q285 -11 234 14T155 89V-233H75ZM337 66Q413 66 462 114T511 244T463 373T337 421T212 371T164 244Q164
168 213 118T337 66Z" />
<glyph unicode="q" glyph-name="q" horiz-adv-x="636" d="M480 -233H482V89Q454 40 403 15T295 -10Q183 -10 114 60T44 248Q44 361 113 431T290 503Q349 503 400 476T480 399L483 494H561V-233H480ZM302 69L303 70Q377 70 426 120T475 247Q475 324 427 374T302
424T177 377T128 247T177 117T302 69Z" />
<glyph unicode="r" glyph-name="r" horiz-adv-x="428" d="M151 494L152 495L158 421Q202 503 310 503Q375 505 425 466L388 396Q349 423 302 423Q241 422 199 382T157 275V0H75V494H151Z" />
<glyph unicode="s" glyph-name="s" horiz-adv-x="499" d="M393 385L392 384Q339 432 253 432Q199 433 165 414T131 360Q132 301 254 287Q289 283 311 279T366 265T416 239T449 198T462 136Q461 65 402 27T255 -12Q108 -12 34 81L81 138Q143 62 257 62Q306 62 343
80T382 139Q383 176 349 193T249 218Q207 223 177 231T116 254T69 295T52 360Q52 410 83 444T157 492T252 505Q367 505 440 439L393 385Z" />
<glyph unicode="t" glyph-name="t" horiz-adv-x="397" d="M214 638V493H367V423H213V162Q213 67 291 67Q324 67 360 85L384 17Q334 -6 288 -7Q132 -10 132 162V423H33V493H132V629L214 638Z" />
<glyph unicode="u" glyph-name="u" horiz-adv-x="609" d="M458 0H459L455 79Q392 -6 283 -8Q187 -8 128 53T68 221V494H150V222Q150 150 190 109T300 68Q367 69 409 115T452 229V494H534V0H458Z" />
<glyph unicode="v" glyph-name="v" horiz-adv-x="561" d="M27 494H117L197 301L281 87L364 300L444 494H534L326 -1H236L27 494Z" />
<glyph unicode="w" glyph-name="w" horiz-adv-x="839" d="M31 494H122L255 87L386 494H453L584 87L717 494H807L634 -1H540L473 183L420 363L366 183L299 -1H206L31 494Z" />
<glyph unicode="x" glyph-name="x" horiz-adv-x="495" d="M16 2L194 253L28 491V494H119L247 307L373 494H467V491L299 253L480 2V0H386L247 200L107 0H16V2Z" />
<glyph unicode="y" glyph-name="y" horiz-adv-x="551" d="M526 494L214 -233H126L229 7L30 494H123L220 237L274 96L327 236L436 494H526Z" />
<glyph unicode="z" glyph-name="z" horiz-adv-x="471" d="M48 494H431V457L153 79H431V0H31V32L311 419H48V494Z" />
<glyph unicode="{" glyph-name="braceleft" horiz-adv-x="330" d="M293 -136L292 -137Q193 -153 152 -117T111 12V156Q111 258 36 258V321Q111 321 111 423V561Q111 653 153 690T292 710V649Q235 660 214 640T193 558V423Q193 394 192 380T185 344T164 310T123
290Q149 283 164 270T186 236T193 200T194 157V16Q194 -45 213 -63T293 -73V-136Z" />
<glyph unicode="|" glyph-name="bar" horiz-adv-x="253" d="M167 726V-103H86V726H167Z" />
<glyph unicode="}" glyph-name="braceright" horiz-adv-x="329" d="M37 -77V-79Q97 -88 117 -70T137 9V150Q137 179 138 193T145 229T166 264T207 284Q186 290 172 301T151 322T141 352T137 383T136 418V552Q136 614 115 634T37 643V705Q133 723 175 685T218 555V418Q218
316 293 316V254Q218 254 218 152V8Q218 -84 177 -120T37 -141V-77Z" />
<glyph unicode="~" glyph-name="asciitilde" horiz-adv-x="636" d="M506 361L568 337Q543 266 494 240T373 243L244 306Q221 313 201 315T162 301T128 248L71 272Q94 340 149 370T267 370L394 308Q469 270 506 361Z" />
</font>
</defs>
</svg>
