<?xml version="1.0" encoding="utf-8"?>
<!-- Generator: Adobe Illustrator 16.0.0, SVG Export Plug-In . SVG Version: 6.00 Build 0)  -->
<!DOCTYPE svg PUBLIC "-//W3C//DTD SVG 1.1//EN" "http://www.w3.org/Graphics/SVG/1.1/DTD/svg11.dtd">
<svg version="1.1" id="Layer_1" xmlns="http://www.w3.org/2000/svg" xmlns:xlink="http://www.w3.org/1999/xlink" x="0px" y="0px"
	 width="220.427px" height="157.698px" viewBox="0 0 220.427 157.698" enable-background="new 0 0 220.427 157.698"
	 xml:space="preserve">
<g>
	<path fill="#DF174D" d="M61.792,131.967c-0.332,0.783-0.531,2.037,0.51,2.272c0.832,0.157,1.872-0.627,2.372-1.724
		c0.499-1.098,1.013-2.743-0.206-2.979C63.309,129.303,62.037,131.262,61.792,131.967z"/>
	<path fill="#DF174D" d="M71.841,139.099c-2.503,3.292-7.91,10.345-11.097,10.502c-4.719,0.313,1.369-10.737,1.505-11.129
		c0.49-1.411-1.287-1.567-2.191-0.157c0,0-1.699,3.527-2.417,5.251c-0.608,1.411-2.669,8.699,1.968,8.621
		c4.196,0,10.361-8.386,11.156-9.483C73.037,139.569,72.836,137.767,71.841,139.099z"/>
	<path fill="#DF174D" d="M117.165,143.018c0,0-15.942,12.539-29.435,11.912c-13.492-0.627-6.489-16.693-6.108-17.791
		c5.422-14.576,24.523-30.25,38.638-29.545c7.606,0.392,5.28,4.703,5.254,4.78c-2.743,7.21-12.656,11.757-13.356,12.069
		c-1.373,0.549-2.023,0.549-1.981,1.959c0.019,1.646,2.527,0.549,3.514-0.078c0.959-0.549,11.735-6.896,14.182-14.107
		c2.474-7.287-6.157-7.444-6.749-7.444c-14.975-0.784-35.839,16.223-41.837,32.289c-5.345,14.185-0.442,20.141,8.259,20.61
		c11.542,0.627,26.272-9.953,27.194-10.736c2.8-2.272,3.172-3.684,3.199-3.762C117.915,142.391,117.165,143.018,117.165,143.018z"/>
	<path fill="#DF174D" d="M70.456,125.733c1.872-0.424,0.769-3.627-1.564-3.181c-3.017,0.576-5.982,1.098-8.896,1.572
		c2.539-6.473,4.794-11.825,5.824-13.945c2.344-4.702,3.557-6.661,3.557-6.661s1.286-1.489,0.322-2.116
		c-0.887-1.02-2.87,1.372-4.335,4.311c-2.682,5.381-5.522,12.182-8.131,18.85c-7.981,1.228-15.475,2.062-22.177,2.483
		c3.479-8.134,7.171-15.919,9.951-21.255c0.342-0.657,1.109-1.488,0.676-2.116c-1.705-2.743-3.463,1.804-3.822,2.665
		c-0.168,0.313-6.545,14.577-8.924,20.062c-0.113,0.258-0.227,0.519-0.339,0.78c-17.895,0.878-29.525-1.366-28.58-7.046
		c2.387-14.342,87.958-56.767,100.843-65.335c0,0-1.219-0.543-2.953-1.417C80.29,67.239-1.263,105.498,0.015,120.07
		c0.393,4.48,4.437,8.912,24.285,9.99c2.298,0.125,4.659,0.165,7.038,0.145c-3.804,9.41-6.846,19.473-6.846,19.473
		s-0.586,1.176,0.292,1.881c0.604,0.472,1.377,0.629,1.677-0.234c0.213-0.783,0.201-1.92,0.966-4.311
		c1.651-5.157,3.893-11.024,6.314-16.85c7.792-0.205,15.638-1.04,22.074-1.934c-4.291,11.227-7.694,21.227-8.253,22.227
		c-0.946,1.692,1.101,2.436,2.119,1.316c1.017-1.12,2.015-4.822,4.073-10.794c1.49-4.324,3.168-8.878,4.804-13.146
		C65.084,126.855,69.685,125.908,70.456,125.733z"/>
	<path fill="#DF174D" d="M155.896,67.07c1.672,0.278,0.422-2.12-1.928-2.499c-21.49-3.463-56.296-12.965-54.139-18.564
		c0.778-2.019,8.631,2.369,8.631,2.369c0.792-0.478,2.688-1.739,2.688-1.739s-11.997-8.117-15.395-2.456
		C90.798,52.438,123.664,61.712,155.896,67.07z"/>
	<path fill="#DF174D" d="M112.529,50.866c1.164,0.479,9.114,5.52,9.114,5.52l7.88,2.214c-2.832-1.841-14.367-9.458-14.367-9.458
		C114.146,49.82,112.529,50.866,112.529,50.866z"/>
	<path fill="#DF174D" d="M220.381,118.305c-0.889-7.219-12.652-16.178-27.837-26.459c-18.437-12.484-52.763-27.023-52.763-27.023
		c-1.624-0.358-6.92-1.524-6.92-1.524c15.984,8.715,34.988,17.068,49.43,25.601c18.688,11.039,32.662,22.101,35.312,28.919
		c2.376,6.111-16.531,8.855-31.69,10.038c0.937-1.688,1.823-3.409,2.61-5.138c3.557-7.68,4.127-12.382,1.313-12.617
		c-3.678-0.327-10.414,10.391-14.123,18.373c-4.273,0.188-7.237,0.229-7.681,0.21c-1.967-0.087-6.891,0.524-1.689,1.142
		c1.107,0.132,4.28,0.343,8.563,0.454c-0.392,0.914-0.733,1.774-1.009,2.549c-0.943,2.661-1.917,5.478-2.615,8.116
		c-2.772,3.506-6.854,8.342-10.42,8.342c-1.004,0-1.787-0.471-2.101-1.098c1.29-1.332,3.872-3.997,5.935-7.21
		c1.808-2.821,4.475-6.583,2.787-8.698c-2.324-2.666-8.076,5.721-9.638,9.873c-0.7,1.862-1.345,4.021-1.369,5.853
		c-1.512,1.184-3.052,1.985-4.487,1.985c-1.24,0-2.173-0.549-2.678-1.646c1.52,0.393,4.555-1.881,6.212-5.799
		c0.659-1.724,0.829-6.975,1.369-8.699c0.377-1.254,1.735-4.311-0.247-4.389c-1.123,0-1.909,1.411-2.686,3.135
		c-1.602,3.414-3.05,5.548-4.017,6.87l-0.89,1.124c-2.584,3.527-5.117,3.84-6.713,2.82c0.224-0.47,0.445-0.939,0.608-1.41
		c2.784-6.818,1.174-9.325-0.417-9.17c-1.65,0.158-2.913,1.412-3.695,2.979c-1.644,0.31-4.023,4.117-5.527,7.1
		c-2.719,3.296-6.289,6.929-9.335,6.929c-1.714,0-2.728-1.332-3.029-3.526c2.899-2.899,11.078-13.166,15.824-23.59
		c3.556-7.68,4.127-12.382,1.313-12.617c-4.414-0.393-13.236,15.125-15.938,22.728c-3.056,8.62-6.447,18.888,0.362,19.356
		c3.268,0.229,6.709-2.612,9.172-5.236c-0.684,2.56-0.713,5.364,1.475,5.551c2.873,0.234,5.763-2.979,7.816-6.506
		c2.05,0.689,4.012,0.077,5.645-1.028c-0.499,4.038,0.263,7.009,3.877,7.3c2.104,0.176,4.286-0.92,6.238-2.418
		c0.44,1.307,1.499,2.199,3.566,2.26c3.646,0.064,8.289-5.463,10.302-8.09c-0.779,4.482-0.2,7.902,3.663,8.168
		c5.596,0.393,11.725-8.229,12.52-9.325c2.303-3.056,2.162-4.859,1.135-3.605c-2.502,3.292-7.873,10.58-12.188,10.58
		c-1.714,0-2.729-1.332-3.029-3.526c2.182-2.182,7.353-8.537,11.802-15.99C200.731,130.021,221.539,127.703,220.381,118.305z
		 M123.863,132.986c4.447-10.58,10.989-20.221,13.153-19.985c2.19,0.157-1.942,9.326-3.063,11.364
		c-5.996,11.129-8.005,14.186-13.121,20.062C121.045,141.606,122.569,136.199,123.863,132.986z M134.477,150.228
		c-1.896-0.157-0.894-3.214-0.234-4.938c0.604-1.566,2.807-5.016,3.675-5.643c-0.167,2.352,0.394,4.312,1.612,5.565
		C138.152,147.641,135.899,150.384,134.477,150.228z M140.891,142.312c-0.795-0.94-1.187-2.194-1.019-3.526
		c0.108-1.332,0.88-3.213,1.912-3.291C143.258,135.337,141.932,139.49,140.891,142.312z M148.762,146.701
		c-0.114-0.863-0.174-1.881-0.002-3.057c0.017-0.171,0.046-0.404,0.036-0.617c0.256-0.29,0.495-0.583,0.711-0.874
		c0.032-0.024,0.066-0.04,0.095-0.076c1.453-1.804,3.525-4.703,4.516-7.21c0.104,1.566,0.879,2.742-0.675,7.21
		c-0.845,2.429-2.09,4.31-4.299,4.545C149.025,146.622,148.907,146.622,148.762,146.701z M165.539,134.475
		c0.955,0.312-0.558,3.135-2.111,5.564c-0.413,0.655-0.767,1.255-1.172,1.878c-1.061,1.336-2.289,2.805-3.597,4.126
		C159.544,141.557,164.454,134.243,165.539,134.475z M188.77,113.001c2.191,0.157-1.941,9.326-3.064,11.364
		c-0.716,1.329-1.372,2.536-1.986,3.653c-2.134,0.149-4.161,0.269-6.01,0.362C181.905,119.77,186.926,112.801,188.77,113.001z
		 M172.586,144.428c0.212-2.821,1.736-8.229,3.031-11.441c0.377-0.897,0.771-1.787,1.174-2.665c1.752,0.03,3.646,0.042,5.632,0.025
		C178.745,136.873,176.637,139.773,172.586,144.428z"/>
	<path fill="#DF174D" d="M111.938,2.651c8.188-0.324,18.04,5.487,18.04,16.612c0,13.185-8.133,22.217-24.009,31.476
		c0,0,2.083,1.021,3.106,1.388c16.281-9.591,23.499-19.766,23.923-31.678c0.526-14.809-12.48-21.269-22.681-20.366
		c-4.954,0.438-9.902,2.351-13.053,6.267h3.981C103.855,4.168,107.506,2.827,111.938,2.651z"/>
</g>
</svg>
