<?xml version="1.0" encoding="utf-8"?>
<!-- Generator: Adobe Illustrator 16.0.0, SVG Export Plug-In . SVG Version: 6.00 Build 0)  -->
<!DOCTYPE svg PUBLIC "-//W3C//DTD SVG 1.1//EN" "http://www.w3.org/Graphics/SVG/1.1/DTD/svg11.dtd">
<svg version="1.1" id="Layer_1" xmlns="http://www.w3.org/2000/svg" xmlns:xlink="http://www.w3.org/1999/xlink" x="0px" y="0px"
	 width="215.914px" height="56.535px" viewBox="0 0 215.914 56.535" enable-background="new 0 0 215.914 56.535"
	 xml:space="preserve">
<g>
	<path fill="#DF174D" d="M56.453,51.023c-4.637,0.078-2.576-7.21-1.968-8.621c0.718-1.724,2.417-5.251,2.417-5.251
		c0.904-1.41,2.681-1.254,2.191,0.157c-0.136,0.392-6.224,11.442-1.505,11.129c3.187-0.157,8.594-7.21,11.097-10.502
		c0.995-1.332,1.196,0.471-1.076,3.604C66.814,42.637,60.649,51.023,56.453,51.023 M61.518,31.352
		c-0.5,1.097-1.54,1.881-2.372,1.724c-1.041-0.235-0.842-1.489-0.51-2.272c0.245-0.705,1.517-2.664,2.676-2.43
		C62.531,28.609,62.017,30.254,61.518,31.352"/>
	<path fill="#DF174D" d="M109.001,23.28c0.7-0.312,10.613-4.859,13.356-12.069c0.026-0.077,2.353-4.389-5.254-4.78
		c-14.114-0.706-33.215,14.969-38.638,29.545c-0.381,1.098-7.384,17.164,6.108,17.791c13.493,0.627,29.435-11.912,29.435-11.912
		s0.75-0.627,0.773,0.156c-0.027,0.078-0.399,1.489-3.199,3.762c-0.922,0.783-15.652,11.363-27.194,10.736
		c-8.701-0.47-13.604-6.426-8.259-20.61c5.998-16.066,26.862-33.073,41.837-32.289c0.592,0,9.223,0.157,6.749,7.444
		c-2.446,7.211-13.223,13.559-14.182,14.107c-0.987,0.627-3.495,1.725-3.514,0.078C106.978,23.829,107.628,23.829,109.001,23.28"/>
	<path fill="#DF174D" d="M133.008,38.091c1.026-1.254,1.168,0.55-1.136,3.605c-0.795,1.097-6.924,9.718-12.521,9.325
		c-6.81-0.469-3.418-10.736-0.362-19.356c2.702-7.603,11.524-23.12,15.938-22.728c2.813,0.235,2.242,4.938-1.313,12.617
		c-4.746,10.424-12.925,20.69-15.824,23.59c0.302,2.194,1.315,3.526,3.029,3.526C125.133,48.671,130.504,41.383,133.008,38.091
		 M133.86,11.837c-2.164-0.235-8.706,9.405-13.153,19.985c-1.294,3.213-2.818,8.62-3.031,11.441
		c5.116-5.877,7.125-8.934,13.121-20.062C131.918,21.164,136.051,11.995,133.86,11.837"/>
	<path fill="#DF174D" d="M146.953,38.092c0.768-1.02,1.123,0,0.027,1.959c-1.549,2.586-5.197,6.113-9.166,4.779
		c-2.054,3.527-4.943,6.74-7.816,6.506c-2.755-0.235-1.998-4.624-0.84-7.445c1.158-2.82,4.438-8.855,6.523-9.248
		c0.782-1.566,2.045-2.82,3.695-2.979c1.591-0.155,3.201,2.352,0.417,9.17c-0.163,0.471-0.385,0.94-0.608,1.41
		c1.596,1.02,4.129,0.707,6.713-2.82L146.953,38.092z M131.32,49.064c1.423,0.156,3.676-2.587,5.053-5.016
		c-1.219-1.254-1.779-3.214-1.612-5.565c-0.868,0.627-3.071,4.076-3.675,5.643C130.427,45.85,129.424,48.907,131.32,49.064
		 M138.628,34.331c-1.032,0.078-1.804,1.959-1.912,3.291c-0.168,1.332,0.224,2.586,1.019,3.526
		C138.775,38.327,140.102,34.173,138.628,34.331"/>
	<path fill="#DF174D" d="M145.604,42.481c-0.172,1.176-0.112,2.193,0.002,3.057c0.146-0.079,0.264-0.079,0.382-0.079
		c2.209-0.235,3.454-2.116,4.299-4.545c1.554-4.468,0.779-5.644,0.675-7.21c-0.99,2.507-3.062,5.406-4.516,7.21
		c-0.428,0.548-1.396-0.235-0.602-1.333c0.709-1.02,2.682-3.291,4.961-8.15c0.776-1.724,1.562-3.135,2.686-3.135
		c1.982,0.078,0.624,3.135,0.247,4.389c-0.54,1.725-0.71,6.976-1.369,8.699c-1.657,3.918-4.692,6.191-6.212,5.799
		c0.505,1.098,1.438,1.646,2.678,1.646c4.373,0,9.713-7.367,12.275-10.658c0.967-1.254,1.168,0.548-1.104,3.684
		c-0.854,1.097-7.043,9.718-12.67,9.248c-3.91-0.314-4.484-3.763-3.732-8.309c0,0,0.382-1.097,1.318-1.41
		C145.799,41.07,145.649,42.01,145.604,42.481"/>
	<path fill="#DF174D" d="M169.582,37.935c0.967-1.254,1.108,0.548-1.222,3.683c-0.795,1.099-6.756,9.405-11.22,9.326
		c-5.324-0.156-4.012-5.799-2.45-9.953c1.562-4.152,7.313-12.539,9.638-9.873c1.688,2.115-0.979,5.877-2.787,8.698
		c-2.062,3.213-4.645,5.878-5.935,7.21c0.313,0.627,1.097,1.098,2.101,1.098C161.963,48.124,166.961,41.227,169.582,37.935
		 M162.383,33.311c-1.1-0.234-6.139,7.289-6.922,11.756c2.957-2.9,3.625-4.311,4.811-6.191
		C161.825,36.446,163.338,33.624,162.383,33.311"/>
	<path fill="#DF174D" d="M184.76,38.091c1.027-1.254,1.168,0.55-1.135,3.605c-0.795,1.097-6.924,9.718-12.52,9.325
		c-6.811-0.469-3.419-10.736-0.363-19.356c2.702-7.603,11.524-23.12,15.938-22.728c2.813,0.235,2.243,4.938-1.313,12.617
		c-4.746,10.424-12.925,20.69-15.824,23.59c0.301,2.194,1.315,3.526,3.029,3.526C176.887,48.671,182.258,41.383,184.76,38.091
		 M185.613,11.837c-2.164-0.235-8.706,9.405-13.152,19.985c-1.295,3.213-2.819,8.62-3.031,11.441
		c5.115-5.877,7.123-8.934,13.119-20.062C183.672,21.164,187.805,11.995,185.613,11.837"/>
	<path fill="#DF174D" d="M41.852,4.627c0.342-0.657,1.109-1.489,0.676-2.116c-1.705-2.743-3.463,1.803-3.822,2.665
		c-0.168,0.313-6.545,14.577-8.924,20.062c-4.515,10.267-8.446,23.275-8.446,23.275s-0.586,1.176,0.292,1.881
		c0.604,0.472,1.377,0.629,1.677-0.234c0.213-0.783,0.201-1.92,0.966-4.311C28.539,32.518,36.739,14.438,41.852,4.627"/>
	<path fill="#DF174D" d="M66.543,0.239c-0.887-1.019-2.87,1.372-4.335,4.31C54.446,20.123,45.352,47.6,44.406,49.293
		c-0.946,1.692,1.101,2.436,2.119,1.316c1.017-1.12,2.015-4.822,4.073-10.794c4.314-12.517,10.2-26.959,12.066-30.8
		c2.344-4.702,3.557-6.661,3.557-6.661S67.507,0.866,66.543,0.239"/>
	<path fill="#DF174D" d="M65.735,21.389c2.333-0.446,3.436,2.757,1.564,3.181c-1.873,0.424-26.307,5.405-46.156,4.327
		C1.295,27.819-1.914,22.59,0.862,18.973C-0.631,27.952,29.284,28.355,65.735,21.389"/>
	<path fill="#DF174D" d="M215.447,16.655c5.96,13.404-47.058,12.627-52.26,12.008c-5.201-0.617-0.277-1.229,1.689-1.142
		C166.843,27.609,215.447,26.641,215.447,16.655z"/>
</g>
</svg>
